<svg viewBox="41.36603773584906 36.002 320.20377358490566 319.42199999999997" xmlns="http://www.w3.org/2000/svg" style="max-height: 500px" width="320.20377358490566" height="319.42199999999997">
<g stroke-width="0.3" stroke-opacity="0.00" stroke="#FEFEFE" fill-opacity="0.0" fill="None"><path d="M 0.00 383.00 &#10;L 406.00 383.00&#10;L 406.00 0.00&#10;L 0.00 0.00&#10;L 0.00 383.00&#10;M 102.00 253.00 &#10;C 96.40 245.69 99.18 234.01 90.75 228.25 C 82.32 222.49 72.93 224.83 62.98 220.02 C 53.02 215.22 58.81 200.52 57.00 190.00 C 55.19 179.48 64.46 172.58 75.07 172.07 C 85.69 171.57 92.41 167.20 96.75 157.75 C 101.10 148.31 101.33 140.84 96.22 132.78 C 91.12 124.71 83.04 117.14 87.75 108.75 C 92.47 100.36 99.52 98.79 105.30 90.30 C 111.08 81.82 121.87 86.38 129.25 92.75 C 136.62 99.13 144.85 100.60 153.67 97.67 C 162.50 94.74 170.66 88.51 171.93 79.93 C 173.19 71.35 175.16 56.30 184.01 56.01 C 192.86 55.72 210.64 51.73 218.25 57.75 C 225.85 63.78 218.45 80.16 221.00 91.00 C 223.55 101.84 217.83 113.61 221.00 127.00 C 224.17 140.39 213.35 143.30 201.99 140.01 C 190.63 136.72 180.24 142.82 171.32 146.32 C 162.40 149.82 158.21 156.16 152.08 163.08 C 145.96 170.00 143.00 179.75 142.00 189.00 C 141.00 198.25 140.40 211.68 144.78 220.22 C 149.16 228.76 152.44 234.23 159.75 241.25 C 167.06 248.27 172.97 249.92 183.02 253.98 C 193.08 258.03 201.58 255.10 213.07 254.07 C 224.57 253.04 220.05 271.91 221.00 282.00 C 221.95 292.09 218.99 307.38 221.00 319.00 C 223.01 330.62 218.90 342.11 206.00 340.00 C 193.10 337.89 181.95 342.93 176.68 333.32 C 171.41 323.71 174.44 311.87 168.25 305.75 C 162.05 299.64 150.23 294.87 142.00 296.00 C 133.77 297.13 128.11 306.22 119.30 309.30 C 110.50 312.39 104.63 304.12 98.25 297.75 C 91.86 291.38 82.76 285.10 88.75 276.75 C 94.74 268.40 95.21 260.32 102.00 253.00&#10;M 271.00 139.00 &#10;C 266.53 146.84 261.93 150.80 256.23 158.23 C 250.53 165.66 247.35 172.87 236.00 172.00 C 224.65 171.13 213.41 172.19 201.00 172.00 C 188.59 171.81 191.18 156.81 204.00 159.00 C 216.82 161.19 226.47 157.35 239.00 159.00&#10;C 244.31 145.64 265.09 137.36 257.67 121.33 C 250.26 105.29 265.26 86.81 282.01 86.01 C 298.76 85.21 314.70 101.85 310.22 119.22 C 305.74 136.59 287.64 145.51 271.00 139.00&#10;M 296.00 204.00 &#10;C 285.17 203.51 270.43 204.65 260.00 204.00 C 249.57 203.35 231.96 205.22 223.00 204.00 C 214.04 202.78 191.96 209.20 192.01 197.99 C 192.05 186.78 212.90 191.66 222.00 191.00 C 231.10 190.34 248.35 191.34 259.00 191.00 C 269.65 190.66 284.93 191.26 296.00 191.00&#10;C 302.27 164.27 343.62 168.53 345.00 197.00 C 346.38 225.47 301.54 233.04 296.00 204.00&#10;M 271.00 257.00 &#10;C 280.85 253.84 292.69 254.86 300.75 261.25 C 308.82 267.64 312.95 279.06 310.07 289.07 C 307.19 299.08 300.36 305.78 290.92 308.92 C 281.49 312.07 269.32 308.42 263.10 300.90 C 256.88 293.38 252.31 281.48 258.32 271.32 C 264.34 261.17 251.44 258.30 247.25 248.75 C 243.06 239.21 229.36 234.90 220.00 237.00 C 210.64 239.10 188.29 238.91 192.78 227.78 C 197.27 216.65 216.94 226.32 227.00 223.00 C 237.06 219.68 249.42 226.06 253.77 235.23 C 258.12 244.40 267.56 247.42 271.00 257.00 Z"/>
</g>
<g stroke-width="0.3" stroke-opacity="1.00" stroke="#035c0e" fill-opacity="0.0" fill="None"><path d="M 102.00 253.00 &#10;C 95.21 260.32 94.74 268.40 88.75 276.75 C 82.76 285.10 91.86 291.38 98.25 297.75 C 104.63 304.12 110.50 312.39 119.30 309.30 C 128.11 306.22 133.77 297.13 142.00 296.00 C 150.23 294.87 162.05 299.64 168.25 305.75 C 174.44 311.87 171.41 323.71 176.68 333.32 C 181.95 342.93 193.10 337.89 206.00 340.00 C 218.90 342.11 223.01 330.62 221.00 319.00 C 218.99 307.38 221.95 292.09 221.00 282.00 C 220.05 271.91 224.57 253.04 213.07 254.07 C 201.58 255.10 193.08 258.03 183.02 253.98 C 172.97 249.92 167.06 248.27 159.75 241.25 C 152.44 234.23 149.16 228.76 144.78 220.22 C 140.40 211.68 141.00 198.25 142.00 189.00 C 143.00 179.75 145.96 170.00 152.08 163.08 C 158.21 156.16 162.40 149.82 171.32 146.32 C 180.24 142.82 190.63 136.72 201.99 140.01 C 213.35 143.30 224.17 140.39 221.00 127.00 C 217.83 113.61 223.55 101.84 221.00 91.00 C 218.45 80.16 225.85 63.78 218.25 57.75 C 210.64 51.73 192.86 55.72 184.01 56.01 C 175.16 56.30 173.19 71.35 171.93 79.93 C 170.66 88.51 162.50 94.74 153.67 97.67 C 144.85 100.60 136.62 99.13 129.25 92.75 C 121.87 86.38 111.08 81.82 105.30 90.30 C 99.52 98.79 92.47 100.36 87.75 108.75 C 83.04 117.14 91.12 124.71 96.22 132.78 C 101.33 140.84 101.10 148.31 96.75 157.75 C 92.41 167.20 85.69 171.57 75.07 172.07 C 64.46 172.58 55.19 179.48 57.00 190.00 C 58.81 200.52 53.02 215.22 62.98 220.02 C 72.93 224.83 82.32 222.49 90.75 228.25 C 99.18 234.01 96.40 245.69 102.00 253.00 Z"/>
</g>
<g stroke-width="0.3" stroke-opacity="1.00" stroke="#47d171" fill-opacity="0.0" fill="None"><path d="M 271.00 139.00 &#10;C 287.64 145.51 305.74 136.59 310.22 119.22 C 314.70 101.85 298.76 85.21 282.01 86.01 C 265.26 86.81 250.26 105.29 257.67 121.33 C 265.09 137.36 244.31 145.64 239.00 159.00&#10;C 226.47 157.35 216.82 161.19 204.00 159.00 C 191.18 156.81 188.59 171.81 201.00 172.00 C 213.41 172.19 224.65 171.13 236.00 172.00 C 247.35 172.87 250.53 165.66 256.23 158.23 C 261.93 150.80 266.53 146.84 271.00 139.00 Z"/>
</g>
<g stroke-width="0.3" stroke-opacity="1.00" stroke="#47d171" fill-opacity="0.0" fill="None"><path d="M 296.00 204.00 &#10;C 301.54 233.04 346.38 225.47 345.00 197.00 C 343.62 168.53 302.27 164.27 296.00 191.00&#10;C 284.93 191.26 269.65 190.66 259.00 191.00 C 248.35 191.34 231.10 190.34 222.00 191.00 C 212.90 191.66 192.05 186.78 192.01 197.99 C 191.96 209.20 214.04 202.78 223.00 204.00 C 231.96 205.22 249.57 203.35 260.00 204.00 C 270.43 204.65 285.17 203.51 296.00 204.00 Z"/>
</g>
<g stroke-width="0.3" stroke-opacity="1.00" stroke="#47d171" fill-opacity="0.0" fill="None"><path d="M 271.00 257.00 &#10;C 267.56 247.42 258.12 244.40 253.77 235.23 C 249.42 226.06 237.06 219.68 227.00 223.00 C 216.94 226.32 197.27 216.65 192.78 227.78 C 188.29 238.91 210.64 239.10 220.00 237.00 C 229.36 234.90 243.06 239.21 247.25 248.75 C 251.44 258.30 264.34 261.17 258.32 271.32 C 252.31 281.48 256.88 293.38 263.10 300.90 C 269.32 308.42 281.49 312.07 290.92 308.92 C 300.36 305.78 307.19 299.08 310.07 289.07 C 312.95 279.06 308.82 267.64 300.75 261.25 C 292.69 254.86 280.85 253.84 271.00 257.00 Z"/>
</g>
<g stroke="None" fill-opacity="0.00" fill="#FEFEFE">
<path d="M 0.00 383.00 &#10;L 406.00 383.00&#10;L 406.00 0.00&#10;L 0.00 0.00&#10;L 0.00 383.00&#10;M 102.00 253.00 &#10;C 96.40 245.69 99.18 234.01 90.75 228.25 C 82.32 222.49 72.93 224.83 62.98 220.02 C 53.02 215.22 58.81 200.52 57.00 190.00 C 55.19 179.48 64.46 172.58 75.07 172.07 C 85.69 171.57 92.41 167.20 96.75 157.75 C 101.10 148.31 101.33 140.84 96.22 132.78 C 91.12 124.71 83.04 117.14 87.75 108.75 C 92.47 100.36 99.52 98.79 105.30 90.30 C 111.08 81.82 121.87 86.38 129.25 92.75 C 136.62 99.13 144.85 100.60 153.67 97.67 C 162.50 94.74 170.66 88.51 171.93 79.93 C 173.19 71.35 175.16 56.30 184.01 56.01 C 192.86 55.72 210.64 51.73 218.25 57.75 C 225.85 63.78 218.45 80.16 221.00 91.00 C 223.55 101.84 217.83 113.61 221.00 127.00 C 224.17 140.39 213.35 143.30 201.99 140.01 C 190.63 136.72 180.24 142.82 171.32 146.32 C 162.40 149.82 158.21 156.16 152.08 163.08 C 145.96 170.00 143.00 179.75 142.00 189.00 C 141.00 198.25 140.40 211.68 144.78 220.22 C 149.16 228.76 152.44 234.23 159.75 241.25 C 167.06 248.27 172.97 249.92 183.02 253.98 C 193.08 258.03 201.58 255.10 213.07 254.07 C 224.57 253.04 220.05 271.91 221.00 282.00 C 221.95 292.09 218.99 307.38 221.00 319.00 C 223.01 330.62 218.90 342.11 206.00 340.00 C 193.10 337.89 181.95 342.93 176.68 333.32 C 171.41 323.71 174.44 311.87 168.25 305.75 C 162.05 299.64 150.23 294.87 142.00 296.00 C 133.77 297.13 128.11 306.22 119.30 309.30 C 110.50 312.39 104.63 304.12 98.25 297.75 C 91.86 291.38 82.76 285.10 88.75 276.75 C 94.74 268.40 95.21 260.32 102.00 253.00&#10;M 271.00 139.00 &#10;C 266.53 146.84 261.93 150.80 256.23 158.23 C 250.53 165.66 247.35 172.87 236.00 172.00 C 224.65 171.13 213.41 172.19 201.00 172.00 C 188.59 171.81 191.18 156.81 204.00 159.00 C 216.82 161.19 226.47 157.35 239.00 159.00&#10;C 244.31 145.64 265.09 137.36 257.67 121.33 C 250.26 105.29 265.26 86.81 282.01 86.01 C 298.76 85.21 314.70 101.85 310.22 119.22 C 305.74 136.59 287.64 145.51 271.00 139.00&#10;M 296.00 204.00 &#10;C 285.17 203.51 270.43 204.65 260.00 204.00 C 249.57 203.35 231.96 205.22 223.00 204.00 C 214.04 202.78 191.96 209.20 192.01 197.99 C 192.05 186.78 212.90 191.66 222.00 191.00 C 231.10 190.34 248.35 191.34 259.00 191.00 C 269.65 190.66 284.93 191.26 296.00 191.00&#10;C 302.27 164.27 343.62 168.53 345.00 197.00 C 346.38 225.47 301.54 233.04 296.00 204.00&#10;M 271.00 257.00 &#10;C 280.85 253.84 292.69 254.86 300.75 261.25 C 308.82 267.64 312.95 279.06 310.07 289.07 C 307.19 299.08 300.36 305.78 290.92 308.92 C 281.49 312.07 269.32 308.42 263.10 300.90 C 256.88 293.38 252.31 281.48 258.32 271.32 C 264.34 261.17 251.44 258.30 247.25 248.75 C 243.06 239.21 229.36 234.90 220.00 237.00 C 210.64 239.10 188.29 238.91 192.78 227.78 C 197.27 216.65 216.94 226.32 227.00 223.00 C 237.06 219.68 249.42 226.06 253.77 235.23 C 258.12 244.40 267.56 247.42 271.00 257.00 Z"/>
</g>
<g stroke="None" fill-opacity="1.00" fill="#035c0e">
<path d="M 102.00 253.00 &#10;C 95.21 260.32 94.74 268.40 88.75 276.75 C 82.76 285.10 91.86 291.38 98.25 297.75 C 104.63 304.12 110.50 312.39 119.30 309.30 C 128.11 306.22 133.77 297.13 142.00 296.00 C 150.23 294.87 162.05 299.64 168.25 305.75 C 174.44 311.87 171.41 323.71 176.68 333.32 C 181.95 342.93 193.10 337.89 206.00 340.00 C 218.90 342.11 223.01 330.62 221.00 319.00 C 218.99 307.38 221.95 292.09 221.00 282.00 C 220.05 271.91 224.57 253.04 213.07 254.07 C 201.58 255.10 193.08 258.03 183.02 253.98 C 172.97 249.92 167.06 248.27 159.75 241.25 C 152.44 234.23 149.16 228.76 144.78 220.22 C 140.40 211.68 141.00 198.25 142.00 189.00 C 143.00 179.75 145.96 170.00 152.08 163.08 C 158.21 156.16 162.40 149.82 171.32 146.32 C 180.24 142.82 190.63 136.72 201.99 140.01 C 213.35 143.30 224.17 140.39 221.00 127.00 C 217.83 113.61 223.55 101.84 221.00 91.00 C 218.45 80.16 225.85 63.78 218.25 57.75 C 210.64 51.73 192.86 55.72 184.01 56.01 C 175.16 56.30 173.19 71.35 171.93 79.93 C 170.66 88.51 162.50 94.74 153.67 97.67 C 144.85 100.60 136.62 99.13 129.25 92.75 C 121.87 86.38 111.08 81.82 105.30 90.30 C 99.52 98.79 92.47 100.36 87.75 108.75 C 83.04 117.14 91.12 124.71 96.22 132.78 C 101.33 140.84 101.10 148.31 96.75 157.75 C 92.41 167.20 85.69 171.57 75.07 172.07 C 64.46 172.58 55.19 179.48 57.00 190.00 C 58.81 200.52 53.02 215.22 62.98 220.02 C 72.93 224.83 82.32 222.49 90.75 228.25 C 99.18 234.01 96.40 245.69 102.00 253.00 Z"/>
</g>
<g stroke="None" fill-opacity="1.00" fill="#47d171">
<path d="M 271.00 139.00 &#10;C 287.64 145.51 305.74 136.59 310.22 119.22 C 314.70 101.85 298.76 85.21 282.01 86.01 C 265.26 86.81 250.26 105.29 257.67 121.33 C 265.09 137.36 244.31 145.64 239.00 159.00&#10;C 226.47 157.35 216.82 161.19 204.00 159.00 C 191.18 156.81 188.59 171.81 201.00 172.00 C 213.41 172.19 224.65 171.13 236.00 172.00 C 247.35 172.87 250.53 165.66 256.23 158.23 C 261.93 150.80 266.53 146.84 271.00 139.00 Z"/>
</g>
<g stroke="None" fill-opacity="1.00" fill="#47d171">
<path d="M 296.00 204.00 &#10;C 301.54 233.04 346.38 225.47 345.00 197.00 C 343.62 168.53 302.27 164.27 296.00 191.00&#10;C 284.93 191.26 269.65 190.66 259.00 191.00 C 248.35 191.34 231.10 190.34 222.00 191.00 C 212.90 191.66 192.05 186.78 192.01 197.99 C 191.96 209.20 214.04 202.78 223.00 204.00 C 231.96 205.22 249.57 203.35 260.00 204.00 C 270.43 204.65 285.17 203.51 296.00 204.00 Z"/>
</g>
<g stroke="None" fill-opacity="1.00" fill="#47d171">
<path d="M 271.00 257.00 &#10;C 267.56 247.42 258.12 244.40 253.77 235.23 C 249.42 226.06 237.06 219.68 227.00 223.00 C 216.94 226.32 197.27 216.65 192.78 227.78 C 188.29 238.91 210.64 239.10 220.00 237.00 C 229.36 234.90 243.06 239.21 247.25 248.75 C 251.44 258.30 264.34 261.17 258.32 271.32 C 252.31 281.48 256.88 293.38 263.10 300.90 C 269.32 308.42 281.49 312.07 290.92 308.92 C 300.36 305.78 307.19 299.08 310.07 289.07 C 312.95 279.06 308.82 267.64 300.75 261.25 C 292.69 254.86 280.85 253.84 271.00 257.00 Z"/>
</g>
</svg>